<?xml version="1.0" standalone="no"?>
<!DOCTYPE svg PUBLIC "-//W3C//DTD SVG 20010904//EN"
 "http://www.w3.org/TR/2001/REC-SVG-20010904/DTD/svg10.dtd">
<svg version="1.0" xmlns="http://www.w3.org/2000/svg"
 width="495.000000pt" height="447.000000pt" viewBox="0 0 495.000000 447.000000"
 preserveAspectRatio="xMidYMid meet">

<g transform="translate(0.000000,447.000000) scale(0.100000,-0.100000)"
fill="#000000" stroke="none">
<path d="M1325 4439 c-27 -4 -131 -8 -229 -8 -254 -1 -413 -34 -583 -120 -228
-114 -353 -265 -439 -531 -61 -190 -73 -376 -74 -1136 0 -656 4 -758 41 -962
37 -205 95 -321 228 -452 129 -127 275 -205 451 -241 117 -25 171 -40 188 -52
6 -5 12 -32 13 -61 0 -28 4 -73 10 -101 5 -27 14 -95 19 -149 24 -225 129
-326 355 -343 66 -4 91 -1 143 16 60 21 186 90 220 121 9 9 33 26 52 40 19 13
75 57 123 98 49 40 104 84 124 98 l36 24 479 0 c532 0 502 4 573 -70 22 -23
81 -78 130 -123 50 -44 148 -135 218 -201 230 -217 336 -265 484 -221 72 21
97 45 129 122 27 66 27 73 30 287 2 168 6 221 16 226 7 4 45 12 84 18 224 36
424 132 555 269 101 104 145 200 190 413 44 207 52 381 45 960 -5 509 -15 665
-50 827 -32 148 -116 288 -233 389 -83 72 -79 67 -98 134 -77 270 -221 483
-385 570 -242 129 -355 150 -787 149 -140 0 -230 4 -242 11 -24 12 -1733 12
-1816 -1z m2454 -413 c189 -66 324 -196 390 -376 45 -122 45 -143 43 -978 -1
-702 -3 -801 -18 -860 -54 -216 -176 -359 -369 -431 -134 -50 -148 -51 -903
-51 l-707 0 -65 -52 c-36 -29 -128 -104 -205 -168 -136 -113 -316 -258 -460
-371 -125 -97 -144 -104 -186 -70 l-24 19 -3 309 c-2 169 -5 314 -7 320 -3 10
-43 13 -154 13 -188 0 -254 13 -391 79 -77 37 -195 157 -242 246 -75 145 -72
97 -75 994 -4 872 -3 898 52 1032 76 189 268 338 475 369 30 4 665 7 1410 6
l1355 -1 84 -29z"/>
<path d="M1351 2929 c-53 -16 -127 -97 -145 -160 -20 -65 -20 -92 -1 -155 62
-209 355 -235 450 -39 63 128 16 278 -108 341 -38 20 -149 27 -196 13z"/>
<path d="M2232 2930 c-87 -20 -163 -115 -170 -211 -6 -80 13 -140 59 -193 103
-117 270 -114 376 8 38 42 53 91 53 166 0 71 -26 127 -80 173 -68 58 -150 78
-238 57z"/>
<path d="M3089 2926 c-55 -19 -116 -74 -141 -125 -18 -35 -23 -62 -22 -116 0
-61 5 -77 32 -121 52 -84 124 -124 220 -124 182 1 305 198 223 358 -58 112
-197 170 -312 128z"/>
</g>
</svg>
